<svg id="Layer_1" data-name="Layer 1" xmlns="http://www.w3.org/2000/svg" viewBox="0 0 98.68 51.91">
  <defs>
    <style>
      .cls-1 {
        fill: #fff;
      }

      .cls-2 {
        fill: #be5b8d;
      }
    </style>
  </defs>
  <title>logo</title>
  <g>
    <path class="cls-1" d="M35.6,5.19a.83.83,0,0,0-.83.86V26a.85.85,0,0,0,.83.88H67.35a.85.85,0,0,0,.83-.88v-20a.83.83,0,0,0-.83-.86ZM42,7.67,43.23,8a.22.22,0,0,1,.1.21V9.86c0,.11,0,.2-.1.19L42,9.71s-.08-.1-.08-.21V7.85C41.89,7.75,41.92,7.66,42,7.67Zm1.75.47L45,8.48c.06,0,.08.1.08.21v1.64c0,.11,0,.2-.08.19l-1.25-.34a.22.22,0,0,1-.1-.21V8.3C43.62,8.19,43.67,8.13,43.72,8.14Zm1.75.47L46.7,9a.22.22,0,0,1,.1.21V10.8c0,.11,0,.2-.1.19l-1.23-.34a.29.29,0,0,1-.1-.24V8.77C45.37,8.66,45.42,8.6,45.47,8.61Zm1.75.47,1.23.34s.1.1.1.21v1.64c0,.11,0,.18-.1.16l-1.23-.31a.29.29,0,0,1-.1-.24V9.24C47.12,9.13,47.17,9.07,47.22,9.08Zm1.72.47,1.26.34s.1.1.1.21v1.64c0,.11,0,.18-.1.16l-1.26-.31s-.08-.13-.08-.24V9.71C48.86,9.6,48.89,9.54,48.94,9.55Zm1.75.47,1.26.31a.29.29,0,0,1,.1.24v1.64c0,.11,0,.18-.1.16L50.69,12s-.08-.1-.08-.21V10.18C50.61,10.07,50.64,10,50.69,10Zm1.75.47,1.25.31c.06,0,.08.13.08.24v1.64c0,.11,0,.18-.08.16l-1.25-.34s-.1-.1-.1-.21V10.65C52.34,10.54,52.39,10.48,52.44,10.49Zm-10.18.08a.61.61,0,0,1,.26,0l7.81,2.08a.93.93,0,0,1,.65.84V18.4a.48.48,0,0,1-.65.47l-7.81-2.09a.89.89,0,0,1-.63-.83V11.07a.45.45,0,0,1,.37-.5Zm11.93.37,1.25.33c.06,0,.08.13.08.24v1.64c0,.11,0,.18-.08.16L54.19,13s-.1-.1-.1-.21V11.12C54.09,11,54.14,10.92,54.19,10.94Zm1.75.46,1.23.34a.24.24,0,0,1,.1.21v1.67c0,.11-.05.17-.1.16l-1.23-.34s-.1-.1-.1-.21V11.59C55.84,11.48,55.89,11.39,55.94,11.4Zm1.75.47,1.23.34a.24.24,0,0,1,.1.21v1.65c0,.1-.05.19-.1.18l-1.23-.34s-.11-.1-.11-.21V12.06C57.58,12,57.64,11.86,57.69,11.87Zm1.72.47,1.25.34a.22.22,0,0,1,.11.21v1.65c0,.1-.05.19-.11.18l-1.25-.34s-.08-.1-.08-.21V12.53C59.33,12.42,59.36,12.33,59.41,12.34Zm1.75.47,1.25.34c.06,0,.08.11.08.21V15c0,.1,0,.19-.08.18l-1.25-.34s-.1-.1-.1-.21V13C61.06,12.87,61.11,12.8,61.16,12.81Zm-8.72.5a.6.6,0,0,1,.26,0l7.81,2.09a.85.85,0,0,1,.62.8v4.89a.46.46,0,0,1-.62.47L52.7,19.5a.89.89,0,0,1-.65-.81V13.81a.48.48,0,0,1,.39-.5Zm-11.9,3.6,1.25.32c.05,0,.1.13.1.23v1.65c0,.1,0,.17-.1.15l-1.25-.34c-.06,0-.08-.1-.08-.2V17.07C40.46,17,40.48,16.9,40.54,16.91Zm1.75.45,1.25.34c.05,0,.08.13.08.23v1.65c0,.1,0,.17-.08.15l-1.25-.34c-.06,0-.08-.1-.08-.21V17.54C42.21,17.43,42.23,17.34,42.29,17.36Zm1.74.47,1.26.34c.05,0,.08.1.08.21v1.67c0,.1,0,.17-.08.15L44,19.86c-.05,0-.1-.1-.1-.21V18C43.93,17.9,44,17.81,44,17.83Zm1.75.47,1.23.34c.05,0,.11.1.11.21v1.64c0,.11-.06.2-.11.18l-1.23-.34c-.05,0-.1-.1-.1-.21V18.48C45.68,18.37,45.73,18.28,45.78,18.3Zm1.75.47,1.23.34c.05,0,.1.1.1.21V21c0,.11,0,.2-.1.18l-1.23-.34c-.05,0-.1-.1-.1-.21V19C47.43,18.84,47.48,18.75,47.53,18.77Zm1.73.47,1.25.34c.05,0,.1.1.1.21v1.64c0,.11,0,.2-.1.18l-1.25-.34c-.06,0-.08-.1-.08-.21V19.39C49.18,19.29,49.2,19.22,49.26,19.24Zm1.75.47,1.25.34c.05,0,.08.1.08.21V21.9c0,.11,0,.17-.08.16L51,21.74c-.06,0-.08-.13-.08-.23V19.86C50.93,19.76,51,19.69,51,19.71Zm1.74.47,1.26.34c.05,0,.08.1.08.21v1.64c0,.11,0,.17-.08.16l-1.26-.32s-.1-.13-.1-.23V20.33C52.65,20.23,52.7,20.16,52.75,20.18Zm1.75.47,1.23.34c.05,0,.11.1.11.21v1.64c0,.11-.06.17-.11.16l-1.23-.32s-.1-.13-.1-.23V20.8C54.4,20.7,54.45,20.63,54.5,20.65Zm1.75.47,1.23.31c.05,0,.1.13.1.24v1.64c0,.11,0,.17-.1.16l-1.23-.34a.24.24,0,0,1-.1-.21V21.27C56.15,21.17,56.2,21.1,56.25,21.12Zm1.73.47,1.25.31c.05,0,.1.13.1.24v1.64c0,.11,0,.17-.1.16L58,23.6c-.06,0-.08-.11-.08-.21V21.74C57.9,21.64,57.92,21.57,58,21.59Zm1.75.44,1.25.34c.05,0,.08.13.08.24v1.64c0,.11,0,.17-.08.16l-1.25-.34c-.06,0-.08-.11-.08-.21V22.21C59.65,22.11,59.67,22,59.73,22Z" transform="translate(-4.31 -5.19)"/>
    <path class="cls-1" d="M35.47,27.74c-.35.09-.5.5-.7.86L26.41,39.46c-.23.42.38.86.86.86H75.68c.48,0,1.09-.44.86-.86L68.18,28.6c-.23-.42-.38-.86-.86-.86H35.47Zm13,5.87h7c.11,0,.13.09.18.18l1.86,3.32c.05.09-.11.21-.21.21H46.62c-.11,0-.24-.12-.18-.21l1.85-3.32C48.34,33.7,48.37,33.61,48.47,33.61Z" transform="translate(-4.31 -5.19)"/>
    <path class="cls-1" d="M66.51,6.88v8.35c0-5.6-3.49-7.29-7.52-8.35Z" transform="translate(-4.31 -5.19)"/>
  </g>
  <g>
    <path class="cls-2" d="M4.38,56.52a.41.41,0,0,1-.07-.28,1.45,1.45,0,0,1,.16-.47l.17-.32a2.56,2.56,0,0,1,.11-.24l.31-.74L8.48,44.26l3.67,7.09,3.56-7.09L20,56.53H15.51l-2.06-6.34-3.19,6.64-3.35-6L5.75,54.48a6,6,0,0,0-.39,1c-.08.29-.15.5-.2.66-.11.35-.29.51-.54.49A.3.3,0,0,1,4.38,56.52Z" transform="translate(-4.31 -5.19)"/>
    <path class="cls-2" d="M21,52.05a4.41,4.41,0,0,1,1.35-3.24,4.78,4.78,0,0,1,3.42-1.29,4.6,4.6,0,0,1,3.42,1.34,4.39,4.39,0,0,1,1.26,3.22,4.47,4.47,0,0,1-1.29,3.26,4.6,4.6,0,0,1-3.42,1.35,4.65,4.65,0,0,1-3.37-1.29A4.43,4.43,0,0,1,21,52.05Zm4.5,4h.25a4,4,0,0,0,2.82-1,4.19,4.19,0,0,0,.07-5.82,4,4,0,0,0-2.89-1.09h-.25Z" transform="translate(-4.31 -5.19)"/>
    <path class="cls-2" d="M31.24,47.67H35l2.26,4.65,1.42-2.82a7.87,7.87,0,0,0,.55-1.34,1.14,1.14,0,0,1,.23-.54.36.36,0,0,1,.27-.1.31.31,0,0,1,.25.11.32.32,0,0,1,.09.21.82.82,0,0,1,0,.22,1.9,1.9,0,0,1-.08.29c-.08.23-.25.62-.52,1.18L35.8,56.91Z" transform="translate(-4.31 -5.19)"/>
    <path class="cls-2" d="M43.38,46.22A2.1,2.1,0,0,1,42,45.83a1.21,1.21,0,0,1-.48-1,1.09,1.09,0,0,1,.53-.9,2.1,2.1,0,0,1,1.2-.4,3.09,3.09,0,0,1,1,.13,2,2,0,0,1,.58.32,1.22,1.22,0,0,1,.48,1,1.07,1.07,0,0,1-.55.91A2.41,2.41,0,0,1,43.38,46.22Zm-1.74,1.45h3.57v8.86H41.64Z" transform="translate(-4.31 -5.19)"/>
    <path class="cls-2" d="M55.74,54.52c.22,0,.33.1.33.29a.88.88,0,0,1-.29.54,4.84,4.84,0,0,1-3.6,1.34,5,5,0,0,1-3.45-1.24,4.13,4.13,0,0,1-1.45-3.25,4.41,4.41,0,0,1,1.31-3.3,5,5,0,0,1,3.68-1.38,4.48,4.48,0,0,1,3.1,1.12,4,4,0,0,1,1.35,3.16c0,.19,0,.39,0,.6H51.23V56a6.09,6.09,0,0,0,1.27.12,3.61,3.61,0,0,0,2.55-1,3.29,3.29,0,0,0,.3-.34A.51.51,0,0,1,55.74,54.52Zm-2.21-6.24a4.58,4.58,0,0,0-1.22-.15,5,5,0,0,0-1.08.09v3.57h2.3Z" transform="translate(-4.31 -5.19)"/>
    <path class="cls-2" d="M71.66,55.7a6.56,6.56,0,0,1-5.8.56A5.67,5.67,0,0,1,63.94,55a6.06,6.06,0,0,1-1.79-4.52,5.62,5.62,0,0,1,1.74-4.21,6.06,6.06,0,0,1,4.37-1.67,5.74,5.74,0,0,1,6,6,6.28,6.28,0,0,1-.56,2.69,5.54,5.54,0,0,1-1.54,2l.78.61a3.11,3.11,0,0,0,.74.47l.36.06c.25,0,.37.11.37.3s-.15.34-.45.34a1.24,1.24,0,0,1-.66-.2,6.22,6.22,0,0,1-.69-.48ZM68.25,45.24a5.62,5.62,0,0,0-.85.07V56a6.52,6.52,0,0,0,1,.07,5.11,5.11,0,0,0,2.73-.82,2.84,2.84,0,0,0-1.62-.65.6.6,0,0,1-.36-.09.27.27,0,0,1-.13-.24q0-.33.45-.33a3.94,3.94,0,0,1,2.16,1,5.34,5.34,0,0,0,1.93-4.15,6.12,6.12,0,0,0-.39-2.26,5.11,5.11,0,0,0-4.93-3.27Z" transform="translate(-4.31 -5.19)"/>
    <path class="cls-2" d="M79.43,56.69c-2,0-2.92-.95-2.92-2.85V47.67h3.56V55.8a.54.54,0,0,0,.2,0h.28a2.48,2.48,0,0,0,1.57-.9,4.31,4.31,0,0,0,.52-.6V47.67h3.57v8.86H82.64V55.26A4.28,4.28,0,0,1,79.43,56.69Z" transform="translate(-4.31 -5.19)"/>
    <path class="cls-2" d="M90.78,46.22a2,2,0,0,1-1.33-.39,1.21,1.21,0,0,1-.48-1,1.07,1.07,0,0,1,.53-.9,2.05,2.05,0,0,1,1.19-.4,3.09,3.09,0,0,1,1,.13,1.9,1.9,0,0,1,.58.32,1.23,1.23,0,0,1,.49,1,1.1,1.1,0,0,1-.55.91A2.47,2.47,0,0,1,90.78,46.22ZM89,47.67h3.57v8.86H89Z" transform="translate(-4.31 -5.19)"/>
    <path class="cls-2" d="M102.47,55.82c.3,0,.44.11.44.33a.33.33,0,0,1-.19.27,1.38,1.38,0,0,1-.64.11H94.35l4.91-8.26h-2.5a5.61,5.61,0,0,0-.83,0,3.28,3.28,0,0,1-.56.07.45.45,0,0,1-.28-.09.34.34,0,0,1-.11-.24c0-.26.27-.39.82-.39H103l-4.6,8.26h2.73a5.65,5.65,0,0,0,.87,0A2.58,2.58,0,0,1,102.47,55.82Z" transform="translate(-4.31 -5.19)"/>
  </g>
</svg>
